<svg width="660" height="552" viewBox="0 0 880 736" fill="none" xmlns="http://www.w3.org/2000/svg">
<path d="M-52.59 -228.828L701.503 -86.1442L-116.735 535.96L-52.59 -228.828Z" fill="#EF6ECB"/>
<path d="M248.67 86.9065L357.509 268.542L71.5093 202.886L248.67 86.9065Z" fill="#FCF20B"/>
<path d="M330.042 89.43L61.4108 289.255L40.5078 -78.6848L330.042 89.43Z" fill="#25D841"/>
<path d="M0 -56L275.396 171.25H-275.396L0 -56Z" fill="#3EA9F7"/>
<path d="M14 -66.5L118 141.5L-79.5 71L14 -66.5Z" fill="#F40000"/>
<path d="M-138.798 362.802L-12.3083 576.715L105.821 318.983L-138.798 362.802Z" fill="#08E8A5"/>
<path d="M667.851 199.085L297.035 38.3654L-184 -123.247L626.176 -48.4434L667.851 199.085Z" fill="#F68A68"/>
<path d="M-62.1279 372.479L-77.256 59.9558L165 316.09L-62.1279 372.479Z" fill="#C3C572"/>
</svg>
